# xmcd
#
# Track frame offsets:
#	150
#	17181
#	30490
#	42048
#	55007
#	69019
#	81105
#	94449
#	108093
#	122483
#	132480
#	144509
#	153505
#	168014
#	178834
#	191482
#	203814
#	216123
#	228310
#	242443
#	255871
#	267220
#	287323
#	301305
#	314874
#
# Disc length: 4370 seconds
#
# Revision: 1
# Processed by: cddbd v1.5.2PL0 Copyright (c) Steve Scherf et al.
# Submitted via: audiograbber 1.83.01
#
DISCID=4b111019
DTITLE=Frank Sinatra - The Great American Songbook Cd1
DYEAR=2007
DGENRE=Swing
TTITLE0=I've Got You Under My Skin
TTITLE1=I Get A Kick Of You
TTITLE2=My Funny Valentine
TTITLE3=Young At Heart
TTITLE4=Three Coins In The Fountain
TTITLE5=Love And Marriage
TTITLE6=You Make Me Feel So Young
TTITLE7=(Love Is) The Tender Trap
TTITLE8=Don't Worry 'Bout Me
TTITLE9=I've Got The World On A String
TTITLE10=The Girl Next Door
TTITLE11=They Can't Take That Away From Me
TTITLE12=The Gal That Got Away
TTITLE13=Jeepers Creepers
TTITLE14=How About You?
TTITLE15=Anything Goes
TTITLE16=Pennies From Heaven
TTITLE17=Love Is Here To Stay
TTITLE18=Violets For Your Furs
TTITLE19=Someone To Watch Over Me
TTITLE20=I Thought About You
TTITLE21=We'll Be Together Again
TTITLE22=Makin' Whoopee
TTITLE23=From Here To Eternity
TTITLE24=South Of The Border
EXTD=
EXTT0=
EXTT1=
EXTT2=
EXTT3=
EXTT4=
EXTT5=
EXTT6=
EXTT7=
EXTT8=
EXTT9=
EXTT10=
EXTT11=
EXTT12=
EXTT13=
EXTT14=
EXTT15=
EXTT16=
EXTT17=
EXTT18=
EXTT19=
EXTT20=
EXTT21=
EXTT22=
EXTT23=
EXTT24=
PLAYORDER=
